<svg width="170" height="170" viewBox="0 0 170 170" fill="none" xmlns="http://www.w3.org/2000/svg">
    <circle cx="85" cy="85" r="85" fill="#456BF2"/>
    <g clip-path="url(#clip0)">
        <path d="M126.554 99.4867C126.527 99.7606 126.511 100.039 126.511 100.322C126.511 104.554 129.827 108.015 134 108.248C134.079 108.252 134.237 108.255 134.376 108.256C134.521 108.257 134.637 108.375 134.637 108.519V117.666C134.637 121.831 131.261 125.208 127.096 125.208H42.3484C38.1833 125.208 34.8069 121.831 34.8069 117.666V109.235C34.8069 108.701 35.2023 108.254 35.7306 108.18C36.1248 108.125 36.5097 108.041 36.8836 107.93C40.1653 106.954 42.5567 103.919 42.5567 100.323C42.5567 98.3635 41.8478 96.5722 40.6724 95.1906C40.6678 95.1839 40.6611 95.1748 40.6521 95.1679C39.4263 93.7324 37.6946 92.74 35.7332 92.4645C35.2038 92.3901 34.8066 91.9441 34.8066 91.4094V84.227C34.8066 80.062 38.1831 76.6855 42.3482 76.6855H127.098C131.261 76.6855 134.637 80.0609 134.637 84.2249V92.1271C134.637 92.2711 134.519 92.389 134.375 92.3888C134.327 92.3888 134.286 92.3888 134.266 92.3892C130.25 92.4805 126.967 95.5539 126.554 99.4867Z" fill="#3558D2"/>
        <path d="M134.637 84.2243V92.1253C134.637 92.2699 134.521 92.3874 134.376 92.3887C134.233 92.39 134.068 92.3928 133.986 92.3975C130.098 92.6214 126.957 95.6453 126.554 99.4866L48.7486 121.883C44.7446 123.036 40.5683 120.723 39.4155 116.721L36.8836 107.93C40.1653 106.953 42.5567 103.919 42.5567 100.322C42.5567 98.3632 41.8478 96.5719 40.6724 95.1903C40.6678 95.1836 40.6611 95.1745 40.6521 95.1676C39.4263 93.7321 37.6946 92.7397 35.7332 92.4642C35.2038 92.3897 34.8066 91.9438 34.8066 91.409V84.2267C34.8066 80.0617 38.1831 76.6852 42.3482 76.6852H127.098C131.261 76.6852 134.637 80.0606 134.637 84.2243Z" fill="#2A4AB8"/>
        <path d="M132.432 91.7186L108.215 98.6892L105.102 99.5851L50.9895 115.16C46.9872 116.313 42.81 114.001 41.6573 109.999L39.3681 102.046C39.1991 101.459 39.4791 100.832 40.0332 100.575C43.5189 98.9553 45.4031 94.996 44.306 91.1878C43.2118 87.3826 39.5162 85.0302 35.7054 85.5075C35.1003 85.5833 34.5261 85.2258 34.3573 84.6399L32.4071 77.8639C31.2565 73.8616 33.5663 69.6823 37.5686 68.5317L91.6816 52.9564L94.7945 52.0605L119.011 45.09C123.013 43.9372 127.191 46.247 128.343 50.2493L130.417 57.4535C130.519 57.806 130.326 58.1766 129.979 58.2949C129.769 58.3664 129.556 58.4432 129.424 58.5011C125.833 60.0727 123.872 64.0985 124.987 67.9661C126.142 71.9785 130.188 74.3764 134.212 73.5453C134.249 73.5378 134.296 73.5268 134.35 73.5136C134.709 73.4255 135.075 73.6356 135.177 73.9911L137.593 82.3862C138.744 86.3887 136.434 90.5659 132.432 91.7186Z" fill="#D3E1F5"/>
        <path d="M128.272 50.0191C127.028 46.1595 122.937 43.9589 119.012 45.0885L37.5695 68.5302C33.7175 69.639 31.4342 73.5504 32.2951 77.4108L128.272 50.0191Z" fill="#B3CEEC"/>
        <path d="M93.2376 52.5068L106.659 99.1361L50.9892 115.16C46.9871 116.311 42.8089 114.001 41.657 109.999L39.3681 102.046C39.199 101.459 39.479 100.833 40.0332 100.575C43.5191 98.9555 45.403 94.9961 44.3068 91.187C43.2113 87.381 39.5159 85.0299 35.7053 85.5061C35.1002 85.5817 34.526 85.2242 34.3574 84.6383L32.4072 77.8627C31.2553 73.8606 33.5658 69.6824 37.5679 68.5305L93.2376 52.5068Z" fill="#B7CBD7"/>
        <path d="M93.2375 52.5068L37.5681 68.5303C35.1376 69.2336 32.9959 71.2533 32.3567 73.8764C32.0629 75.0015 32.0258 76.2074 32.2932 77.4087C32.2934 77.4094 32.2934 77.4102 32.2937 77.4109L95.2352 59.4474L93.2375 52.5068Z" fill="#A4BCCB"/>
        <path d="M70.5334 86.1L69.7858 99.1547C69.7593 99.6171 70.1977 99.9673 70.6428 99.839L74.2708 98.7948C74.4996 98.729 74.6764 98.547 74.7358 98.3167L78.4063 84.0755L70.5334 86.1Z" fill="#EAF6FF"/>
        <path d="M69.3775 82.0838L61.8042 71.424C61.5359 71.0464 61.7211 70.5169 62.1662 70.3887L65.7942 69.3445C66.023 69.2786 66.2693 69.3387 66.4422 69.5023L77.1219 79.6129L69.3775 82.0838Z" fill="#EAF6FF"/>
        <path d="M54.142 86.2274C54.142 86.2274 78.5214 77.7607 81.4219 76.9259C84.3224 76.0911 87.5807 79.0186 87.5807 79.0186C87.5807 79.0186 86.3773 83.2305 83.4768 84.0652C80.5763 84.9 55.4262 90.6895 55.4262 90.6895L52.9307 91.5457C52.6278 91.6495 52.2939 91.5254 52.1322 91.2491L49.1285 86.1102C48.8267 85.5938 49.2988 84.9702 49.8778 85.1204L54.142 86.2274Z" fill="#EAF6FF"/>
        <path d="M118.976 58.869L104.939 62.9095C104.318 63.0883 103.669 62.7297 103.49 62.1087L102.326 58.0636C102.147 57.4426 102.506 56.7941 103.127 56.6153L117.165 52.5748C117.786 52.3961 118.434 52.7546 118.613 53.3757L119.777 57.4207C119.956 58.042 119.597 58.6903 118.976 58.869Z" fill="#4340E9"/>
        <path d="M95.9099 90.3297L99.0731 101.32L90.1489 103.888L86.9857 92.8983C86.7821 92.1909 87.1905 91.4522 87.898 91.2486L94.2604 89.4174C94.9678 89.2138 95.7063 89.6222 95.9099 90.3297Z" fill="#FEE903"/>
        <path d="M122.762 118.474H107.28C106.618 118.474 106.082 117.938 106.082 117.276V113.403C106.082 112.741 106.618 112.205 107.28 112.205H122.762C123.423 112.205 123.959 112.741 123.959 113.403V117.276C123.959 117.938 123.423 118.474 122.762 118.474Z" fill="#FFEFD2"/>
        <path d="M108.215 98.6883L105.102 99.5842L104.476 97.406C104.228 96.5468 104.725 95.6488 105.584 95.4027C106.441 95.1544 107.341 95.651 107.587 96.5101L108.215 98.6883Z" fill="#D3E1F5"/>
        <path d="M105.437 89.0389L104.25 84.9092C104.001 84.05 103.103 83.5535 102.246 83.8018C101.387 84.0479 100.891 84.9459 101.137 85.8051L102.326 89.9348C102.529 90.645 103.177 91.107 103.88 91.107C104.029 91.107 104.18 91.0854 104.329 91.0422C105.189 90.7961 105.685 89.8981 105.437 89.0389ZM102.099 77.4378L100.91 73.3082C100.662 72.449 99.7659 71.9546 98.9067 72.2007C98.0475 72.449 97.551 73.3449 97.7993 74.2041L98.9866 78.3337C99.1917 79.0439 99.8393 79.5059 100.541 79.5059C100.69 79.5059 100.841 79.4843 100.99 79.4411C101.849 79.195 102.346 78.297 102.099 77.4378ZM98.7599 65.8368L97.5704 61.7093C97.3243 60.8501 96.4242 60.3536 95.5671 60.5997C94.708 60.848 94.2115 61.746 94.4597 62.6052L95.647 66.7327C95.8521 67.4429 96.4997 67.9049 97.2035 67.9049C97.3503 67.9049 97.5014 67.8854 97.6503 67.8423C98.5095 67.594 99.006 66.696 98.7599 65.8368Z" fill="#D3E1F5"/>
        <path d="M94.3129 56.2412C94.1639 56.2844 94.0128 56.3038 93.8639 56.3038C93.1601 56.3038 92.5125 55.8419 92.3096 55.1338L91.6814 52.9556L94.7943 52.0598L95.4203 54.2379C95.6686 55.0971 95.1721 55.993 94.3129 56.2412Z" fill="#D3E1F5"/>
        <path d="M118.52 84.0536C117.817 84.0536 117.17 83.5916 116.965 82.882C116.718 82.0227 117.214 81.1257 118.074 80.8783L126.775 78.3737C127.632 78.1264 128.531 78.6222 128.778 79.4818C129.026 80.3412 128.53 81.2382 127.67 81.4856L118.969 83.9901C118.82 84.0331 118.669 84.0536 118.52 84.0536Z" fill="#98BCE5"/>
        <path d="M120.126 89.6315C119.423 89.6315 118.775 89.1696 118.571 88.4598C118.324 87.6006 118.82 86.7034 119.679 86.456L128.38 83.9517C129.238 83.7043 130.136 84.2002 130.384 85.0598C130.631 85.9189 130.135 86.8161 129.276 87.0635L120.575 89.5678C120.425 89.611 120.274 89.6315 120.126 89.6315Z" fill="#98BCE5"/>
        <path d="M49.6514 107.5C48.9481 107.5 48.3007 107.038 48.0965 106.328C47.8491 105.469 48.3451 104.572 49.2045 104.325L61.4754 100.793C62.3331 100.546 63.2318 101.041 63.4789 101.901C63.7263 102.76 63.2303 103.657 62.3709 103.905L50.1 107.437C49.9504 107.48 49.7997 107.5 49.6514 107.5Z" fill="#596C76"/>
        <path d="M98.1549 116.634H80.9429C80.0485 116.634 79.3239 115.909 79.3239 115.015C79.3239 114.121 80.0485 113.396 80.9429 113.396H98.1549C99.0493 113.396 99.774 114.121 99.774 115.015C99.774 115.909 99.0493 116.634 98.1549 116.634Z" fill="#60B7FF"/>
    </g>
    <defs>
        <clipPath id="clip0">
            <rect width="105.778" height="105.778" fill="white" transform="translate(32.1111 32.1111)"/>
        </clipPath>
    </defs>
</svg>
